<?xml version="1.0" encoding="utf-8"?>
<!-- Generator: Adobe Illustrator 16.0.0, SVG Export Plug-In . SVG Version: 6.00 Build 0)  -->
<!DOCTYPE svg PUBLIC "-//W3C//DTD SVG 1.1//EN" "http://www.w3.org/Graphics/SVG/1.1/DTD/svg11.dtd">
<svg version="1.1" id="Capa_1" xmlns="http://www.w3.org/2000/svg" xmlns:xlink="http://www.w3.org/1999/xlink" x="0px" y="0px"
	 width="510.24px" height="680.311px" viewBox="1481.703 0 510.24 680.311" enable-background="new 1481.703 0 510.24 680.311"
	 xml:space="preserve">
<g id="XMLID_801_">
	<path id="XMLID_802_" d="M1615.502,259.211h-91.143c-4.046,0-7.323,3.279-7.323,7.322v292.802c0,4.045,3.277,7.322,7.323,7.322
		h91.143c4.045,0,7.322-3.277,7.322-7.322V266.533C1622.824,262.49,1619.547,259.211,1615.502,259.211z"/>
	<path id="XMLID_803_" d="M1569.963,113.652c-33.163,0-60.142,26.95-60.142,60.076c0,33.141,26.979,60.102,60.142,60.102
		c33.137,0,60.095-26.962,60.095-60.102C1630.059,140.602,1603.099,113.652,1569.963,113.652z"/>
	<path id="XMLID_804_" d="M1847.329,251.933c-36.606,0-63.667,15.736-80.08,33.616v-19.017c0-4.043-3.277-7.322-7.322-7.322h-87.284
		c-4.046,0-7.323,3.279-7.323,7.322v292.802c0,4.045,3.277,7.322,7.323,7.322h90.942c4.045,0,7.322-3.277,7.322-7.322V414.466
		c0-48.817,13.261-67.836,47.291-67.836c37.061,0,40.006,30.489,40.006,70.348v142.358c0,4.045,3.277,7.322,7.322,7.322h90.977
		c4.045,0,7.322-3.277,7.322-7.322V398.729C1963.825,326.139,1949.984,251.933,1847.329,251.933z"/>
</g>
</svg>
