<?xml version="1.0" encoding="utf-8"?>
<!-- Generator: Adobe Illustrator 16.0.0, SVG Export Plug-In . SVG Version: 6.00 Build 0)  -->
<!DOCTYPE svg PUBLIC "-//W3C//DTD SVG 1.1//EN" "http://www.w3.org/Graphics/SVG/1.1/DTD/svg11.dtd">
<svg version="1.1" id="Capa_1" xmlns="http://www.w3.org/2000/svg" xmlns:xlink="http://www.w3.org/1999/xlink" x="0px" y="0px"
	 width="510.24px" height="680.311px" viewBox="0 0 510.24 680.311" enable-background="new 0 0 510.24 680.311"
	 xml:space="preserve">
<g>
	<g>
		<path d="M497.845,189.635c-18.051,7.919-37.287,13.167-57.343,15.716c20.632-12.318,36.379-31.675,43.782-55.007
			c-19.237,11.469-40.475,19.57-63.11,24.09c-18.265-19.448-44.296-31.493-72.696-31.493c-55.099,0-99.456,44.722-99.456,99.548
			c0,7.889,0.667,15.474,2.305,22.695c-82.739-4.036-155.951-43.691-205.134-104.1c-8.586,14.897-13.623,31.949-13.623,50.306
			c0,34.466,17.749,65.02,44.207,82.708c-15.989-0.303-31.675-4.945-44.965-12.258c0,0.304,0,0.698,0,1.093
			c0,48.363,34.498,88.534,79.735,97.788c-8.101,2.215-16.93,3.277-26.093,3.277c-6.371,0-12.803-0.364-18.842-1.7
			c12.896,39.414,49.486,68.39,92.995,69.329c-33.86,26.487-76.853,42.447-123.396,42.447c-8.162,0-15.99-0.364-23.818-1.366
			c44.086,28.431,96.332,44.662,152.675,44.662c183.137,0,283.262-151.704,283.262-283.2c0-4.399-0.152-8.647-0.364-12.865
			C467.719,227.287,484.314,209.781,497.845,189.635z"/>
	</g>
</g>
</svg>
